<mxfile host="drawio-plugin" modified="2021-07-01T20:54:49.100Z" agent="5.0 (Macintosh; Intel Mac OS X 10_16_0) AppleWebKit/537.36 (KHTML, like Gecko) Chrome/84.0.4147.105 Safari/537.36" etag="rYivzOgBRM8S9sscJqEv" version="14.7.4" type="embed"><diagram id="C5RBs43oDa-KdzZeNtuy" name="Page-1"><mxGraphModel dx="2763" dy="904" grid="1" gridSize="10" guides="1" tooltips="1" connect="1" arrows="1" fold="1" page="1" pageScale="1" pageWidth="827" pageHeight="1169" math="0" shadow="0"><root><mxCell id="WIyWlLk6GJQsqaUBKTNV-0"/><mxCell id="WIyWlLk6GJQsqaUBKTNV-1" parent="WIyWlLk6GJQsqaUBKTNV-0"/><mxCell id="fk8g1e5_puwbV-77GHfn-81" style="edgeStyle=orthogonalEdgeStyle;rounded=0;orthogonalLoop=1;jettySize=auto;html=1;entryX=0.5;entryY=0;entryDx=0;entryDy=0;" parent="WIyWlLk6GJQsqaUBKTNV-1" source="zkfFHV4jXpPFQw0GAbJ--0" target="fk8g1e5_puwbV-77GHfn-21" edge="1"><mxGeometry relative="1" as="geometry"/></mxCell><mxCell id="zkfFHV4jXpPFQw0GAbJ--0" value="Main Menu" style="swimlane;fontStyle=2;align=center;verticalAlign=top;childLayout=stackLayout;horizontal=1;startSize=26;horizontalStack=0;resizeParent=1;resizeLast=0;collapsible=1;marginBottom=0;rounded=0;shadow=0;strokeWidth=1;" parent="WIyWlLk6GJQsqaUBKTNV-1" vertex="1"><mxGeometry x="1170" y="861" width="340" height="180" as="geometry"><mxRectangle x="230" y="140" width="160" height="26" as="alternateBounds"/></mxGeometry></mxCell><mxCell id="zkfFHV4jXpPFQw0GAbJ--2" value="- turnStates : ArrayList&lt;TurnState&gt;&#10;- inputs = Scanner&#10;- data : PlayerData&#10;- input : String" style="text;align=left;verticalAlign=top;spacingLeft=4;spacingRight=4;overflow=hidden;rotatable=0;points=[[0,0.5],[1,0.5]];portConstraint=eastwest;rounded=0;shadow=0;html=0;" parent="zkfFHV4jXpPFQw0GAbJ--0" vertex="1"><mxGeometry y="26" width="340" height="64" as="geometry"/></mxCell><mxCell id="zkfFHV4jXpPFQw0GAbJ--4" value="" style="line;html=1;strokeWidth=1;align=left;verticalAlign=middle;spacingTop=-1;spacingLeft=3;spacingRight=3;rotatable=0;labelPosition=right;points=[];portConstraint=eastwest;" parent="zkfFHV4jXpPFQw0GAbJ--0" vertex="1"><mxGeometry y="90" width="340" height="30" as="geometry"/></mxCell><mxCell id="zkfFHV4jXpPFQw0GAbJ--5" value="+  menuMaker(PlayerData data) : void&#10;+  selectionHandler(TurnState state, PlayerData data) : void" style="text;align=left;verticalAlign=top;spacingLeft=4;spacingRight=4;overflow=hidden;rotatable=0;points=[[0,0.5],[1,0.5]];portConstraint=eastwest;" parent="zkfFHV4jXpPFQw0GAbJ--0" vertex="1"><mxGeometry y="120" width="340" height="50" as="geometry"/></mxCell><mxCell id="zkfFHV4jXpPFQw0GAbJ--17" value="abstract&#10;PlayerData" style="swimlane;fontStyle=0;align=center;verticalAlign=top;childLayout=stackLayout;horizontal=1;startSize=40;horizontalStack=0;resizeParent=1;resizeLast=0;collapsible=1;marginBottom=0;rounded=0;shadow=0;strokeWidth=1;" parent="WIyWlLk6GJQsqaUBKTNV-1" vertex="1"><mxGeometry x="1090" y="231" width="500" height="290" as="geometry"><mxRectangle x="550" y="140" width="160" height="26" as="alternateBounds"/></mxGeometry></mxCell><mxCell id="zkfFHV4jXpPFQw0GAbJ--18" value="originalData : PlayerData" style="text;align=left;verticalAlign=top;spacingLeft=4;spacingRight=4;overflow=hidden;rotatable=0;points=[[0,0.5],[1,0.5]];portConstraint=eastwest;" parent="zkfFHV4jXpPFQw0GAbJ--17" vertex="1"><mxGeometry y="40" width="500" height="26" as="geometry"/></mxCell><mxCell id="zkfFHV4jXpPFQw0GAbJ--23" value="" style="line;html=1;strokeWidth=1;align=left;verticalAlign=middle;spacingTop=-1;spacingLeft=3;spacingRight=3;rotatable=0;labelPosition=right;points=[];portConstraint=eastwest;" parent="zkfFHV4jXpPFQw0GAbJ--17" vertex="1"><mxGeometry y="66" width="500" height="8" as="geometry"/></mxCell><mxCell id="zkfFHV4jXpPFQw0GAbJ--25" value="+ turnStateFilter() : ArrayList&lt;TurnState&gt;&#10;+ slotCardsFilter() : ArrayList&lt;String&gt;&#10;+ createMappedRes(ArrayList&lt;Resource&gt; resources): ArrayList&lt;MappedResource&gt;&#10;+ allResources() : ArrayList&lt;MappedResource&gt;&#10;+ removeMappedResource(ArrayList&lt;MappedResource&gt; map) : void&#10;+ getCardFromID(String cardID) : ClientDevCard&#10;+ getMarket() : Resource[][]&#10;+ handleWarehouse(ArrayList&lt;Resource&gt; res) : ArrayList&lt;MarketResource&gt;&#10;+ tableCardsFilter() : ArrayList&lt;String&gt;&#10;+ handleSlots(String devID) : Int&#10;+ getWareHouse() : ArrayList&lt;Resource[]&gt;&#10;+ switchLevels(int origin) : int " style="text;align=left;verticalAlign=top;spacingLeft=4;spacingRight=4;overflow=hidden;rotatable=0;points=[[0,0.5],[1,0.5]];portConstraint=eastwest;" parent="zkfFHV4jXpPFQw0GAbJ--17" vertex="1"><mxGeometry y="74" width="500" height="200" as="geometry"/></mxCell><mxCell id="zkfFHV4jXpPFQw0GAbJ--26" value="" style="endArrow=open;shadow=0;strokeWidth=1;rounded=0;endFill=1;edgeStyle=elbowEdgeStyle;elbow=vertical;entryX=0.5;entryY=1;entryDx=0;entryDy=0;" parent="WIyWlLk6GJQsqaUBKTNV-1" source="zkfFHV4jXpPFQw0GAbJ--0" target="zkfFHV4jXpPFQw0GAbJ--17" edge="1"><mxGeometry x="0.5" y="41" relative="1" as="geometry"><mxPoint x="325" y="753" as="sourcePoint"/><mxPoint x="955" y="956.3333333333335" as="targetPoint"/><mxPoint x="-40" y="32" as="offset"/></mxGeometry></mxCell><mxCell id="JJriD7b2xeksv05l2RdO-20" value="BasicData" style="swimlane;fontStyle=0;align=center;verticalAlign=top;childLayout=stackLayout;horizontal=1;startSize=30;horizontalStack=0;resizeParent=1;resizeLast=0;collapsible=1;marginBottom=0;rounded=0;shadow=0;strokeWidth=1;" parent="WIyWlLk6GJQsqaUBKTNV-1" vertex="1"><mxGeometry x="620" y="251" width="292" height="430" as="geometry"><mxRectangle x="130" y="380" width="160" height="26" as="alternateBounds"/></mxGeometry></mxCell><mxCell id="fk8g1e5_puwbV-77GHfn-4" value="- playerId : String&lt;br&gt;- gameID : int&lt;br&gt;- turnStates : ArrayList&amp;lt;TurnState&amp;gt;&lt;br&gt;- wareHouse : ArrayList&amp;lt;Resource[]&amp;gt;&lt;br&gt;- strongBox : ArrayList&amp;lt;Resource&amp;gt;&lt;br&gt;- tableCardsID : ArrayList&amp;lt;String&amp;gt;&lt;br&gt;- faithPoints : int&lt;br&gt;- victoryPoints : int&lt;br&gt;- frontCardsID :&amp;nbsp;ArrayList&amp;lt;String&amp;gt;&lt;br&gt;- leadersID :&amp;nbsp;ArrayList&amp;lt;String&amp;gt;&lt;br&gt;- leadersPlayed :&amp;nbsp;ArrayList&amp;lt;String&amp;gt;&lt;br&gt;- market : Resource[][]&lt;br&gt;- printer : Printer&lt;br&gt;- otherPlayersData :&amp;nbsp;ArrayList&amp;lt;OtherPlayerData&amp;gt;&lt;br&gt;- allDevID :&amp;nbsp;ArrayList&amp;lt;String&amp;gt;&lt;br&gt;- allGameCards : AllGameCards&lt;br&gt;- menu : Menu" style="text;html=1;align=left;verticalAlign=middle;resizable=0;points=[];autosize=1;strokeColor=none;" parent="JJriD7b2xeksv05l2RdO-20" vertex="1"><mxGeometry y="30" width="292" height="240" as="geometry"/></mxCell><mxCell id="JJriD7b2xeksv05l2RdO-21" value="" style="line;html=1;strokeWidth=1;align=left;verticalAlign=middle;spacingTop=-1;spacingLeft=3;spacingRight=3;rotatable=0;labelPosition=right;points=[];portConstraint=eastwest;" parent="JJriD7b2xeksv05l2RdO-20" vertex="1"><mxGeometry y="270" width="292" height="10" as="geometry"/></mxCell><mxCell id="fk8g1e5_puwbV-77GHfn-15" value="+ turnStateFilter() : ArrayList&amp;lt;TurnState&amp;gt;&lt;br&gt;+ slotCardsFliter() :&amp;nbsp;&lt;span&gt;ArrayList&amp;lt;String&amp;gt;&lt;br&gt;+ allResource() :&amp;nbsp;&lt;/span&gt;&lt;span&gt;ArrayList&amp;lt;Resource&amp;gt;&lt;br&gt;&lt;/span&gt;&lt;span&gt;+ createMappedRes() :&amp;nbsp;&lt;/span&gt;&lt;span&gt;ArrayList&amp;lt;MappedResource&amp;gt;&lt;br&gt;&lt;/span&gt;&lt;span&gt;+ getCardFromID() : ClientDevCard&lt;br&gt;+ getLeaderFromID() : LeaderCard&lt;br&gt;+ handleWareHouse() :&amp;nbsp;&lt;/span&gt;&lt;span&gt;ArrayList&amp;lt;MarketResource&amp;gt;&lt;br&gt;&lt;/span&gt;&lt;span&gt;+ switchLevels() : int&lt;br&gt;+ refresh(Update update) : void&lt;br&gt;&lt;/span&gt;" style="text;html=1;strokeColor=none;fillColor=none;align=left;verticalAlign=middle;whiteSpace=wrap;rounded=0;" parent="JJriD7b2xeksv05l2RdO-20" vertex="1"><mxGeometry y="280" width="292" height="140" as="geometry"/></mxCell><mxCell id="JJriD7b2xeksv05l2RdO-22" value="ExtraProdData" style="swimlane;fontStyle=0;align=center;verticalAlign=top;childLayout=stackLayout;horizontal=1;startSize=40;horizontalStack=0;resizeParent=1;resizeLast=0;collapsible=1;marginBottom=0;rounded=0;shadow=0;strokeWidth=1;" parent="WIyWlLk6GJQsqaUBKTNV-1" vertex="1"><mxGeometry x="1850" y="402" width="270" height="120" as="geometry"><mxRectangle x="130" y="380" width="160" height="26" as="alternateBounds"/></mxGeometry></mxCell><mxCell id="fk8g1e5_puwbV-77GHfn-3" value="- extraProdID : ArrayList&amp;lt;String&amp;gt;&lt;br&gt;- prodRequires : ArrayList&amp;lt;Resource&amp;gt;" style="text;html=1;strokeColor=none;fillColor=none;align=left;verticalAlign=middle;whiteSpace=wrap;rounded=0;" parent="JJriD7b2xeksv05l2RdO-22" vertex="1"><mxGeometry y="40" width="270" height="40" as="geometry"/></mxCell><mxCell id="JJriD7b2xeksv05l2RdO-23" value="" style="line;html=1;strokeWidth=1;align=left;verticalAlign=middle;spacingTop=-1;spacingLeft=3;spacingRight=3;rotatable=0;labelPosition=right;points=[];portConstraint=eastwest;" parent="JJriD7b2xeksv05l2RdO-22" vertex="1"><mxGeometry y="80" width="270" height="40" as="geometry"/></mxCell><mxCell id="JJriD7b2xeksv05l2RdO-24" value="ExtraDepData" style="swimlane;fontStyle=0;align=center;verticalAlign=top;childLayout=stackLayout;horizontal=1;startSize=40;horizontalStack=0;resizeParent=1;resizeLast=0;collapsible=1;marginBottom=0;rounded=0;shadow=0;strokeWidth=1;" parent="WIyWlLk6GJQsqaUBKTNV-1" vertex="1"><mxGeometry x="1850" y="592" width="270" height="120" as="geometry"><mxRectangle x="130" y="380" width="160" height="26" as="alternateBounds"/></mxGeometry></mxCell><mxCell id="fk8g1e5_puwbV-77GHfn-2" value="- extraDep : ArrayList&amp;lt;Resource[]&amp;gt;&lt;br&gt;- placeableRes : ArrayList&amp;lt;Resource&amp;gt;" style="text;html=1;strokeColor=none;fillColor=none;align=left;verticalAlign=middle;whiteSpace=wrap;rounded=0;" parent="JJriD7b2xeksv05l2RdO-24" vertex="1"><mxGeometry y="40" width="270" height="40" as="geometry"/></mxCell><mxCell id="JJriD7b2xeksv05l2RdO-25" value="" style="line;html=1;strokeWidth=1;align=left;verticalAlign=middle;spacingTop=-1;spacingLeft=3;spacingRight=3;rotatable=0;labelPosition=right;points=[];portConstraint=eastwest;" parent="JJriD7b2xeksv05l2RdO-24" vertex="1"><mxGeometry y="80" width="270" height="30" as="geometry"/></mxCell><mxCell id="JJriD7b2xeksv05l2RdO-26" value="DiscountData" style="swimlane;fontStyle=0;align=center;verticalAlign=top;childLayout=stackLayout;horizontal=1;startSize=40;horizontalStack=0;resizeParent=1;resizeLast=0;collapsible=1;marginBottom=0;rounded=0;shadow=0;strokeWidth=1;" parent="WIyWlLk6GJQsqaUBKTNV-1" vertex="1"><mxGeometry x="1850" y="120" width="270" height="100" as="geometry"><mxRectangle x="130" y="380" width="160" height="26" as="alternateBounds"/></mxGeometry></mxCell><mxCell id="fk8g1e5_puwbV-77GHfn-1" value="- discount : ArrayList&amp;lt;Resource&amp;gt;" style="text;html=1;strokeColor=none;fillColor=none;align=left;verticalAlign=middle;whiteSpace=wrap;rounded=0;" parent="JJriD7b2xeksv05l2RdO-26" vertex="1"><mxGeometry y="40" width="270" height="20" as="geometry"/></mxCell><mxCell id="JJriD7b2xeksv05l2RdO-27" value="" style="line;html=1;strokeWidth=1;align=left;verticalAlign=middle;spacingTop=-1;spacingLeft=3;spacingRight=3;rotatable=0;labelPosition=right;points=[];portConstraint=eastwest;" parent="JJriD7b2xeksv05l2RdO-26" vertex="1"><mxGeometry y="60" width="270" height="30" as="geometry"/></mxCell><mxCell id="JJriD7b2xeksv05l2RdO-33" value="ChangeResData&#10;" style="swimlane;fontStyle=0;align=center;verticalAlign=top;childLayout=stackLayout;horizontal=1;startSize=40;horizontalStack=0;resizeParent=1;resizeLast=0;collapsible=1;marginBottom=0;rounded=0;shadow=0;strokeWidth=1;" parent="WIyWlLk6GJQsqaUBKTNV-1" vertex="1"><mxGeometry x="1850" y="270" width="270" height="82" as="geometry"><mxRectangle x="130" y="380" width="160" height="26" as="alternateBounds"/></mxGeometry></mxCell><mxCell id="fk8g1e5_puwbV-77GHfn-0" value="- changes : ArrayList&amp;lt;Resources&amp;gt;" style="text;html=1;strokeColor=none;fillColor=none;align=left;verticalAlign=middle;whiteSpace=wrap;rounded=0;" parent="JJriD7b2xeksv05l2RdO-33" vertex="1"><mxGeometry y="40" width="270" height="30" as="geometry"/></mxCell><mxCell id="JJriD7b2xeksv05l2RdO-34" value="" style="line;html=1;strokeWidth=1;align=left;verticalAlign=middle;spacingTop=-1;spacingLeft=3;spacingRight=3;rotatable=0;labelPosition=right;points=[];portConstraint=eastwest;" parent="JJriD7b2xeksv05l2RdO-33" vertex="1"><mxGeometry y="70" width="270" height="8" as="geometry"/></mxCell><mxCell id="fk8g1e5_puwbV-77GHfn-8" value="" style="endArrow=block;endSize=16;endFill=0;html=1;rounded=0;edgeStyle=orthogonalEdgeStyle;entryX=1;entryY=0.5;entryDx=0;entryDy=0;" parent="WIyWlLk6GJQsqaUBKTNV-1" source="fk8g1e5_puwbV-77GHfn-3" target="zkfFHV4jXpPFQw0GAbJ--25" edge="1"><mxGeometry width="160" relative="1" as="geometry"><mxPoint x="1690" y="462" as="sourcePoint"/><mxPoint x="1690" y="462" as="targetPoint"/></mxGeometry></mxCell><mxCell id="fk8g1e5_puwbV-77GHfn-9" value="" style="endArrow=block;endSize=16;endFill=0;html=1;rounded=0;edgeStyle=orthogonalEdgeStyle;entryX=1;entryY=0.5;entryDx=0;entryDy=0;" parent="WIyWlLk6GJQsqaUBKTNV-1" source="fk8g1e5_puwbV-77GHfn-0" target="zkfFHV4jXpPFQw0GAbJ--25" edge="1"><mxGeometry width="160" relative="1" as="geometry"><mxPoint x="1690" y="325" as="sourcePoint"/><mxPoint x="1640" y="421" as="targetPoint"/><Array as="points"><mxPoint x="1720" y="325"/><mxPoint x="1720" y="405"/></Array></mxGeometry></mxCell><mxCell id="fk8g1e5_puwbV-77GHfn-10" value="" style="endArrow=block;endSize=16;endFill=0;html=1;rounded=0;edgeStyle=orthogonalEdgeStyle;" parent="WIyWlLk6GJQsqaUBKTNV-1" source="fk8g1e5_puwbV-77GHfn-1" target="zkfFHV4jXpPFQw0GAbJ--25" edge="1"><mxGeometry width="160" relative="1" as="geometry"><mxPoint x="1690" y="170" as="sourcePoint"/><mxPoint x="1690" y="170" as="targetPoint"/><Array as="points"><mxPoint x="1720" y="170"/><mxPoint x="1720" y="405"/></Array></mxGeometry></mxCell><mxCell id="fk8g1e5_puwbV-77GHfn-11" value="" style="endArrow=block;endSize=16;endFill=0;html=1;rounded=0;edgeStyle=orthogonalEdgeStyle;exitX=0;exitY=0.5;exitDx=0;exitDy=0;" parent="WIyWlLk6GJQsqaUBKTNV-1" source="fk8g1e5_puwbV-77GHfn-2" target="zkfFHV4jXpPFQw0GAbJ--25" edge="1"><mxGeometry width="160" relative="1" as="geometry"><mxPoint x="1720" y="691" as="sourcePoint"/><mxPoint x="1690" y="652" as="targetPoint"/><Array as="points"><mxPoint x="1720" y="652"/><mxPoint x="1720" y="405"/></Array></mxGeometry></mxCell><mxCell id="fk8g1e5_puwbV-77GHfn-12" value="Extends" style="endArrow=block;endSize=16;endFill=0;html=1;rounded=0;edgeStyle=orthogonalEdgeStyle;entryX=0;entryY=0.5;entryDx=0;entryDy=0;" parent="WIyWlLk6GJQsqaUBKTNV-1" source="fk8g1e5_puwbV-77GHfn-4" target="zkfFHV4jXpPFQw0GAbJ--25" edge="1"><mxGeometry width="160" relative="1" as="geometry"><mxPoint x="912" y="411" as="sourcePoint"/><mxPoint x="1072" y="411" as="targetPoint"/></mxGeometry></mxCell><mxCell id="fk8g1e5_puwbV-77GHfn-21" value="abstract&#10;Selection" style="swimlane;fontStyle=1;align=center;verticalAlign=top;childLayout=stackLayout;horizontal=1;startSize=40;horizontalStack=0;resizeParent=1;resizeParentMax=0;resizeLast=0;collapsible=1;marginBottom=0;" parent="WIyWlLk6GJQsqaUBKTNV-1" vertex="1"><mxGeometry x="1369" y="1301" width="360" height="120" as="geometry"><mxRectangle x="182" y="1730" width="110" height="30" as="alternateBounds"/></mxGeometry></mxCell><mxCell id="fk8g1e5_puwbV-77GHfn-22" value="" style="line;strokeWidth=1;fillColor=none;align=left;verticalAlign=middle;spacingTop=-1;spacingLeft=3;spacingRight=3;rotatable=0;labelPosition=right;points=[];portConstraint=eastwest;" parent="fk8g1e5_puwbV-77GHfn-21" vertex="1"><mxGeometry y="40" width="360" height="30" as="geometry"/></mxCell><mxCell id="fk8g1e5_puwbV-77GHfn-23" value="+ handleSelection(PlayerData data) : void&#10;+ sendToConnection(Request request) : void" style="text;strokeColor=none;fillColor=none;align=left;verticalAlign=top;spacingLeft=4;spacingRight=4;overflow=hidden;rotatable=0;points=[[0,0.5],[1,0.5]];portConstraint=eastwest;" parent="fk8g1e5_puwbV-77GHfn-21" vertex="1"><mxGeometry y="70" width="360" height="50" as="geometry"/></mxCell><mxCell id="fk8g1e5_puwbV-77GHfn-24" style="edgeStyle=orthogonalEdgeStyle;rounded=0;orthogonalLoop=1;jettySize=auto;html=1;entryX=0.505;entryY=1.001;entryDx=0;entryDy=0;entryPerimeter=0;exitX=0.5;exitY=0;exitDx=0;exitDy=0;" parent="WIyWlLk6GJQsqaUBKTNV-1" source="fk8g1e5_puwbV-77GHfn-62" target="fk8g1e5_puwbV-77GHfn-23" edge="1"><mxGeometry relative="1" as="geometry"><Array as="points"><mxPoint x="1084" y="1599"/><mxPoint x="1551" y="1599"/></Array><mxPoint x="683" y="1499" as="targetPoint"/></mxGeometry></mxCell><mxCell id="fk8g1e5_puwbV-77GHfn-25" value="MarketSelection" style="swimlane;fontStyle=1;align=center;verticalAlign=top;childLayout=stackLayout;horizontal=1;startSize=26;horizontalStack=0;resizeParent=1;resizeParentMax=0;resizeLast=0;collapsible=1;marginBottom=0;" parent="WIyWlLk6GJQsqaUBKTNV-1" vertex="1"><mxGeometry x="569" y="1699" width="288" height="50" as="geometry"/></mxCell><mxCell id="fk8g1e5_puwbV-77GHfn-27" value="" style="line;strokeWidth=1;fillColor=none;align=left;verticalAlign=middle;spacingTop=-1;spacingLeft=3;spacingRight=3;rotatable=0;labelPosition=right;points=[];portConstraint=eastwest;" parent="fk8g1e5_puwbV-77GHfn-25" vertex="1"><mxGeometry y="26" width="288" height="24" as="geometry"/></mxCell><mxCell id="fk8g1e5_puwbV-77GHfn-28" style="edgeStyle=orthogonalEdgeStyle;rounded=0;orthogonalLoop=1;jettySize=auto;html=1;exitX=0.5;exitY=0;exitDx=0;exitDy=0;entryX=0.505;entryY=1.004;entryDx=0;entryDy=0;entryPerimeter=0;" parent="WIyWlLk6GJQsqaUBKTNV-1" source="fk8g1e5_puwbV-77GHfn-25" target="fk8g1e5_puwbV-77GHfn-23" edge="1"><mxGeometry relative="1" as="geometry"><mxPoint x="-201" y="1569" as="sourcePoint"/><mxPoint x="1439" y="1439" as="targetPoint"/><Array as="points"><mxPoint x="713" y="1599"/><mxPoint x="1551" y="1599"/></Array></mxGeometry></mxCell><mxCell id="fk8g1e5_puwbV-77GHfn-29" style="edgeStyle=orthogonalEdgeStyle;rounded=0;orthogonalLoop=1;jettySize=auto;html=1;entryX=0.505;entryY=0.997;entryDx=0;entryDy=0;entryPerimeter=0;exitX=0.5;exitY=0;exitDx=0;exitDy=0;" parent="WIyWlLk6GJQsqaUBKTNV-1" source="fk8g1e5_puwbV-77GHfn-30" target="fk8g1e5_puwbV-77GHfn-23" edge="1"><mxGeometry relative="1" as="geometry"><Array as="points"><mxPoint x="1769" y="1599"/><mxPoint x="1551" y="1599"/></Array><mxPoint x="683" y="1495" as="targetPoint"/></mxGeometry></mxCell><mxCell id="fk8g1e5_puwbV-77GHfn-30" value="MoveSelection" style="swimlane;fontStyle=1;align=center;verticalAlign=top;childLayout=stackLayout;horizontal=1;startSize=26;horizontalStack=0;resizeParent=1;resizeParentMax=0;resizeLast=0;collapsible=1;marginBottom=0;" parent="WIyWlLk6GJQsqaUBKTNV-1" vertex="1"><mxGeometry x="1629" y="1720" width="280" height="46" as="geometry"/></mxCell><mxCell id="fk8g1e5_puwbV-77GHfn-32" value="" style="line;strokeWidth=1;fillColor=none;align=left;verticalAlign=middle;spacingTop=-1;spacingLeft=3;spacingRight=3;rotatable=0;labelPosition=right;points=[];portConstraint=eastwest;" parent="fk8g1e5_puwbV-77GHfn-30" vertex="1"><mxGeometry y="26" width="280" height="20" as="geometry"/></mxCell><mxCell id="fk8g1e5_puwbV-77GHfn-33" style="edgeStyle=orthogonalEdgeStyle;rounded=0;orthogonalLoop=1;jettySize=auto;html=1;entryX=0.505;entryY=0.999;entryDx=0;entryDy=0;entryPerimeter=0;exitX=0.5;exitY=0;exitDx=0;exitDy=0;" parent="WIyWlLk6GJQsqaUBKTNV-1" source="fk8g1e5_puwbV-77GHfn-34" target="fk8g1e5_puwbV-77GHfn-23" edge="1"><mxGeometry relative="1" as="geometry"><Array as="points"><mxPoint x="2069" y="1599"/><mxPoint x="1551" y="1599"/></Array><mxPoint x="683" y="1495" as="targetPoint"/></mxGeometry></mxCell><mxCell id="fk8g1e5_puwbV-77GHfn-34" value="PlayLeaderSelection" style="swimlane;fontStyle=1;align=center;verticalAlign=top;childLayout=stackLayout;horizontal=1;startSize=40;horizontalStack=0;resizeParent=1;resizeParentMax=0;resizeLast=0;collapsible=1;marginBottom=0;" parent="WIyWlLk6GJQsqaUBKTNV-1" vertex="1"><mxGeometry x="1983.5" y="1720" width="170" height="54" as="geometry"/></mxCell><mxCell id="fk8g1e5_puwbV-77GHfn-36" value="" style="line;strokeWidth=1;fillColor=none;align=left;verticalAlign=middle;spacingTop=-1;spacingLeft=3;spacingRight=3;rotatable=0;labelPosition=right;points=[];portConstraint=eastwest;" parent="fk8g1e5_puwbV-77GHfn-34" vertex="1"><mxGeometry y="40" width="170" height="14" as="geometry"/></mxCell><mxCell id="fk8g1e5_puwbV-77GHfn-37" style="edgeStyle=orthogonalEdgeStyle;rounded=0;orthogonalLoop=1;jettySize=auto;html=1;entryX=0.505;entryY=1;entryDx=0;entryDy=0;entryPerimeter=0;exitX=0.5;exitY=0;exitDx=0;exitDy=0;" parent="WIyWlLk6GJQsqaUBKTNV-1" source="fk8g1e5_puwbV-77GHfn-38" target="fk8g1e5_puwbV-77GHfn-23" edge="1"><mxGeometry relative="1" as="geometry"><mxPoint x="684" y="1506" as="targetPoint"/><Array as="points"><mxPoint x="2339" y="1599"/><mxPoint x="1551" y="1599"/></Array></mxGeometry></mxCell><mxCell id="fk8g1e5_puwbV-77GHfn-38" value="DiscardLeaderSelection" style="swimlane;fontStyle=1;align=center;verticalAlign=top;childLayout=stackLayout;horizontal=1;startSize=29;horizontalStack=0;resizeParent=1;resizeParentMax=0;resizeLast=0;collapsible=1;marginBottom=0;" parent="WIyWlLk6GJQsqaUBKTNV-1" vertex="1"><mxGeometry x="2229" y="1722" width="219" height="56" as="geometry"/></mxCell><mxCell id="fk8g1e5_puwbV-77GHfn-40" value="" style="line;strokeWidth=1;fillColor=none;align=left;verticalAlign=middle;spacingTop=-1;spacingLeft=3;spacingRight=3;rotatable=0;labelPosition=right;points=[];portConstraint=eastwest;" parent="fk8g1e5_puwbV-77GHfn-38" vertex="1"><mxGeometry y="29" width="219" height="27" as="geometry"/></mxCell><mxCell id="fk8g1e5_puwbV-77GHfn-41" value="EndTurnSelection" style="swimlane;fontStyle=1;align=center;verticalAlign=top;childLayout=stackLayout;horizontal=1;startSize=26;horizontalStack=0;resizeParent=1;resizeParentMax=0;resizeLast=0;collapsible=1;marginBottom=0;" parent="WIyWlLk6GJQsqaUBKTNV-1" vertex="1"><mxGeometry x="1049" y="1381" width="160" height="70" as="geometry"/></mxCell><mxCell id="fk8g1e5_puwbV-77GHfn-42" value="- playerID : String&#10;- gameID : int" style="text;strokeColor=none;fillColor=none;align=left;verticalAlign=top;spacingLeft=4;spacingRight=4;overflow=hidden;rotatable=0;points=[[0,0.5],[1,0.5]];portConstraint=eastwest;" parent="fk8g1e5_puwbV-77GHfn-41" vertex="1"><mxGeometry y="26" width="160" height="44" as="geometry"/></mxCell><mxCell id="fk8g1e5_puwbV-77GHfn-43" value="" style="line;strokeWidth=1;fillColor=none;align=left;verticalAlign=middle;spacingTop=-1;spacingLeft=3;spacingRight=3;rotatable=0;labelPosition=right;points=[];portConstraint=eastwest;" parent="fk8g1e5_puwbV-77GHfn-41" vertex="1"><mxGeometry y="70" width="160" as="geometry"/></mxCell><mxCell id="fk8g1e5_puwbV-77GHfn-44" style="edgeStyle=orthogonalEdgeStyle;rounded=0;orthogonalLoop=1;jettySize=auto;html=1;exitX=1;exitY=0.5;exitDx=0;exitDy=0;" parent="WIyWlLk6GJQsqaUBKTNV-1" source="fk8g1e5_puwbV-77GHfn-41" target="fk8g1e5_puwbV-77GHfn-23" edge="1"><mxGeometry relative="1" as="geometry"><mxPoint x="814.0588235294117" y="1159" as="sourcePoint"/><mxPoint x="399" y="1309" as="targetPoint"/><Array as="points"/></mxGeometry></mxCell><mxCell id="fk8g1e5_puwbV-77GHfn-53" style="edgeStyle=orthogonalEdgeStyle;rounded=0;orthogonalLoop=1;jettySize=auto;html=1;entryX=0.506;entryY=1.002;entryDx=0;entryDy=0;entryPerimeter=0;" parent="WIyWlLk6GJQsqaUBKTNV-1" source="fk8g1e5_puwbV-77GHfn-54" target="fk8g1e5_puwbV-77GHfn-23" edge="1"><mxGeometry relative="1" as="geometry"><mxPoint x="682" y="1519" as="targetPoint"/><Array as="points"><mxPoint x="1446" y="1599"/><mxPoint x="1551" y="1599"/></Array></mxGeometry></mxCell><mxCell id="fk8g1e5_puwbV-77GHfn-54" value="ProductionSelection" style="swimlane;fontStyle=1;align=center;verticalAlign=top;childLayout=stackLayout;horizontal=1;startSize=26;horizontalStack=0;resizeParent=1;resizeParentMax=0;resizeLast=0;collapsible=1;marginBottom=0;" parent="WIyWlLk6GJQsqaUBKTNV-1" vertex="1"><mxGeometry x="1302" y="1720" width="288" height="46" as="geometry"/></mxCell><mxCell id="fk8g1e5_puwbV-77GHfn-56" value="" style="line;strokeWidth=1;fillColor=none;align=left;verticalAlign=middle;spacingTop=-1;spacingLeft=3;spacingRight=3;rotatable=0;labelPosition=right;points=[];portConstraint=eastwest;" parent="fk8g1e5_puwbV-77GHfn-54" vertex="1"><mxGeometry y="26" width="288" height="20" as="geometry"/></mxCell><mxCell id="fk8g1e5_puwbV-77GHfn-62" value="BuyDevSelection&#10;" style="swimlane;fontStyle=1;align=center;verticalAlign=top;childLayout=stackLayout;horizontal=1;startSize=26;horizontalStack=0;resizeParent=1;resizeParentMax=0;resizeLast=0;collapsible=1;marginBottom=0;" parent="WIyWlLk6GJQsqaUBKTNV-1" vertex="1"><mxGeometry x="949" y="1720" width="270" height="46" as="geometry"/></mxCell><mxCell id="fk8g1e5_puwbV-77GHfn-64" value="" style="line;strokeWidth=1;fillColor=none;align=left;verticalAlign=middle;spacingTop=-1;spacingLeft=3;spacingRight=3;rotatable=0;labelPosition=right;points=[];portConstraint=eastwest;" parent="fk8g1e5_puwbV-77GHfn-62" vertex="1"><mxGeometry y="26" width="270" height="20" as="geometry"/></mxCell><mxCell id="fk8g1e5_puwbV-77GHfn-69" style="edgeStyle=orthogonalEdgeStyle;rounded=0;orthogonalLoop=1;jettySize=auto;html=1;entryX=0.505;entryY=1.006;entryDx=0;entryDy=0;entryPerimeter=0;" parent="WIyWlLk6GJQsqaUBKTNV-1" source="fk8g1e5_puwbV-77GHfn-70" target="fk8g1e5_puwbV-77GHfn-23" edge="1"><mxGeometry relative="1" as="geometry"><Array as="points"><mxPoint x="394" y="1599"/><mxPoint x="1551" y="1599"/><mxPoint x="1551" y="1479"/><mxPoint x="1551" y="1479"/></Array></mxGeometry></mxCell><mxCell id="fk8g1e5_puwbV-77GHfn-70" value="StartGameSelection" style="swimlane;fontStyle=1;align=center;verticalAlign=top;childLayout=stackLayout;horizontal=1;startSize=26;horizontalStack=0;resizeParent=1;resizeParentMax=0;resizeLast=0;collapsible=1;marginBottom=0;" parent="WIyWlLk6GJQsqaUBKTNV-1" vertex="1"><mxGeometry x="250" y="1699" width="288" height="104" as="geometry"/></mxCell><mxCell id="fk8g1e5_puwbV-77GHfn-71" value="- faitPoints : int&#10;- leadersToChoose : ArrayList&lt;String&gt;&#10;- choices : int&#10;" style="text;strokeColor=none;fillColor=none;align=left;verticalAlign=top;spacingLeft=4;spacingRight=4;overflow=hidden;rotatable=0;points=[[0,0.5],[1,0.5]];portConstraint=eastwest;" parent="fk8g1e5_puwbV-77GHfn-70" vertex="1"><mxGeometry y="26" width="288" height="54" as="geometry"/></mxCell><mxCell id="fk8g1e5_puwbV-77GHfn-72" value="" style="line;strokeWidth=1;fillColor=none;align=left;verticalAlign=middle;spacingTop=-1;spacingLeft=3;spacingRight=3;rotatable=0;labelPosition=right;points=[];portConstraint=eastwest;" parent="fk8g1e5_puwbV-77GHfn-70" vertex="1"><mxGeometry y="80" width="288" height="24" as="geometry"/></mxCell><mxCell id="fk8g1e5_puwbV-77GHfn-73" style="edgeStyle=orthogonalEdgeStyle;rounded=0;orthogonalLoop=1;jettySize=auto;html=1;entryX=0.503;entryY=1.011;entryDx=0;entryDy=0;entryPerimeter=0;" parent="WIyWlLk6GJQsqaUBKTNV-1" source="fk8g1e5_puwbV-77GHfn-74" target="fk8g1e5_puwbV-77GHfn-23" edge="1"><mxGeometry relative="1" as="geometry"><Array as="points"><mxPoint x="24" y="1599"/><mxPoint x="1550" y="1599"/></Array></mxGeometry></mxCell><mxCell id="fk8g1e5_puwbV-77GHfn-74" value="CheckStatsSelection" style="swimlane;fontStyle=1;align=center;verticalAlign=top;childLayout=stackLayout;horizontal=1;startSize=26;horizontalStack=0;resizeParent=1;resizeParentMax=0;resizeLast=0;collapsible=1;marginBottom=0;" parent="WIyWlLk6GJQsqaUBKTNV-1" vertex="1"><mxGeometry x="-120" y="1699" width="288" height="50" as="geometry"/></mxCell><mxCell id="fk8g1e5_puwbV-77GHfn-76" value="" style="line;strokeWidth=1;fillColor=none;align=left;verticalAlign=middle;spacingTop=-1;spacingLeft=3;spacingRight=3;rotatable=0;labelPosition=right;points=[];portConstraint=eastwest;" parent="fk8g1e5_puwbV-77GHfn-74" vertex="1"><mxGeometry y="26" width="288" height="24" as="geometry"/></mxCell><mxCell id="fk8g1e5_puwbV-77GHfn-77" style="edgeStyle=orthogonalEdgeStyle;rounded=0;orthogonalLoop=1;jettySize=auto;html=1;entryX=0.505;entryY=1;entryDx=0;entryDy=0;entryPerimeter=0;" parent="WIyWlLk6GJQsqaUBKTNV-1" source="fk8g1e5_puwbV-77GHfn-78" target="fk8g1e5_puwbV-77GHfn-23" edge="1"><mxGeometry relative="1" as="geometry"><Array as="points"><mxPoint x="-326" y="1599"/><mxPoint x="1551" y="1599"/><mxPoint x="1551" y="1479"/><mxPoint x="1551" y="1479"/></Array></mxGeometry></mxCell><mxCell id="fk8g1e5_puwbV-77GHfn-78" value="QuitSelection" style="swimlane;fontStyle=1;align=center;verticalAlign=top;childLayout=stackLayout;horizontal=1;startSize=26;horizontalStack=0;resizeParent=1;resizeParentMax=0;resizeLast=0;collapsible=1;marginBottom=0;" parent="WIyWlLk6GJQsqaUBKTNV-1" vertex="1"><mxGeometry x="-470" y="1699" width="288" height="94" as="geometry"/></mxCell><mxCell id="fk8g1e5_puwbV-77GHfn-79" value="- playerID : String&#10;- players : int&#10;" style="text;strokeColor=none;fillColor=none;align=left;verticalAlign=top;spacingLeft=4;spacingRight=4;overflow=hidden;rotatable=0;points=[[0,0.5],[1,0.5]];portConstraint=eastwest;" parent="fk8g1e5_puwbV-77GHfn-78" vertex="1"><mxGeometry y="26" width="288" height="44" as="geometry"/></mxCell><mxCell id="fk8g1e5_puwbV-77GHfn-80" value="" style="line;strokeWidth=1;fillColor=none;align=left;verticalAlign=middle;spacingTop=-1;spacingLeft=3;spacingRight=3;rotatable=0;labelPosition=right;points=[];portConstraint=eastwest;" parent="fk8g1e5_puwbV-77GHfn-78" vertex="1"><mxGeometry y="70" width="288" height="24" as="geometry"/></mxCell><mxCell id="fk8g1e5_puwbV-77GHfn-82" value="&lt;p style=&quot;margin: 0px ; margin-top: 4px ; text-align: center&quot;&gt;&lt;i&gt;abstract&amp;nbsp;&lt;/i&gt;&lt;/p&gt;&lt;p style=&quot;margin: 0px ; margin-top: 4px ; text-align: center&quot;&gt;ClientLeaderCard&lt;/p&gt;&lt;hr size=&quot;1&quot;&gt;&lt;p style=&quot;margin: 0px ; margin-left: 4px&quot;&gt;- victoryPoint : int&lt;br&gt;&lt;/p&gt;&lt;p style=&quot;margin: 0px ; margin-left: 4px&quot;&gt;- isEnable() : boolean&lt;/p&gt;&lt;hr size=&quot;1&quot;&gt;&lt;p style=&quot;margin: 0px ; margin-left: 4px&quot;&gt;+ playCard() : void;&lt;br&gt;&lt;/p&gt;&lt;p style=&quot;margin: 0px ; margin-left: 4px&quot;&gt;+ canBePlayed(): boolean;&lt;/p&gt;" style="verticalAlign=top;align=left;overflow=fill;fontSize=12;fontFamily=Helvetica;html=1;rounded=0;shadow=0;comic=0;labelBackgroundColor=none;strokeWidth=1" parent="WIyWlLk6GJQsqaUBKTNV-1" vertex="1"><mxGeometry x="-320" y="721" width="280" height="140" as="geometry"/></mxCell><mxCell id="fk8g1e5_puwbV-77GHfn-83" value="&lt;p style=&quot;margin: 0px ; margin-top: 4px ; text-align: center&quot;&gt;&lt;b&gt;Discount&lt;/b&gt;&lt;/p&gt;&lt;hr size=&quot;1&quot;&gt;&lt;p style=&quot;margin: 0px ; margin-left: 4px&quot;&gt;- requires : DevCard[2];&lt;/p&gt;&lt;p style=&quot;margin: 0px ; margin-left: 4px&quot;&gt;- discount : Resource&lt;/p&gt;&lt;hr size=&quot;1&quot;&gt;&lt;p style=&quot;margin: 0px ; margin-left: 4px&quot;&gt;&lt;br&gt;&lt;/p&gt;" style="verticalAlign=top;align=left;overflow=fill;fontSize=12;fontFamily=Helvetica;html=1;rounded=0;shadow=0;comic=0;labelBackgroundColor=none;strokeWidth=1" parent="WIyWlLk6GJQsqaUBKTNV-1" vertex="1"><mxGeometry x="-790" y="941" width="150" height="85" as="geometry"/></mxCell><mxCell id="fk8g1e5_puwbV-77GHfn-84" value="&lt;p style=&quot;margin: 0px ; margin-top: 4px ; text-align: center&quot;&gt;&lt;b&gt;ClientExtraDeposit&lt;/b&gt;&lt;/p&gt;&lt;hr size=&quot;1&quot;&gt;&lt;p style=&quot;margin: 0px ; margin-left: 4px&quot;&gt;- requires : Resource&lt;/p&gt;&lt;hr size=&quot;1&quot;&gt;&lt;p style=&quot;margin: 0px ; margin-left: 4px&quot;&gt;&lt;br&gt;&lt;/p&gt;" style="verticalAlign=top;align=left;overflow=fill;fontSize=12;fontFamily=Helvetica;html=1;rounded=0;shadow=0;comic=0;labelBackgroundColor=none;strokeWidth=1" parent="WIyWlLk6GJQsqaUBKTNV-1" vertex="1"><mxGeometry x="-500" y="946" width="160" height="75" as="geometry"/></mxCell><mxCell id="fk8g1e5_puwbV-77GHfn-85" value="" style="endArrow=block;dashed=1;endFill=0;endSize=12;html=1;exitX=0.543;exitY=0.02;exitDx=0;exitDy=0;exitPerimeter=0;entryX=0.468;entryY=0.997;entryDx=0;entryDy=0;entryPerimeter=0;" parent="WIyWlLk6GJQsqaUBKTNV-1" source="fk8g1e5_puwbV-77GHfn-83" target="fk8g1e5_puwbV-77GHfn-82" edge="1"><mxGeometry width="160" relative="1" as="geometry"><mxPoint x="-560" y="951" as="sourcePoint"/><mxPoint x="-400" y="951" as="targetPoint"/><Array as="points"><mxPoint x="-710" y="901"/><mxPoint x="-189" y="901"/></Array></mxGeometry></mxCell><mxCell id="fk8g1e5_puwbV-77GHfn-86" value="" style="endArrow=block;dashed=1;endFill=0;endSize=12;html=1;entryX=0.464;entryY=0.997;entryDx=0;entryDy=0;entryPerimeter=0;" parent="WIyWlLk6GJQsqaUBKTNV-1" source="fk8g1e5_puwbV-77GHfn-84" target="fk8g1e5_puwbV-77GHfn-82" edge="1"><mxGeometry width="160" relative="1" as="geometry"><mxPoint x="-549.6800000000003" y="1017.6999999999998" as="sourcePoint"/><mxPoint x="-190" y="841" as="targetPoint"/><Array as="points"><mxPoint x="-420" y="901"/><mxPoint x="-190" y="901"/></Array></mxGeometry></mxCell><mxCell id="fk8g1e5_puwbV-77GHfn-87" value="&lt;br&gt;&lt;p style=&quot;margin: 0px ; margin-top: 4px ; text-align: center&quot;&gt;&lt;b&gt;ClientExtraProd&lt;/b&gt;&lt;/p&gt;&lt;hr size=&quot;1&quot;&gt;&lt;p style=&quot;margin: 0px ; margin-left: 4px&quot;&gt;- requires : String&lt;/p&gt;&lt;p style=&quot;margin: 0px ; margin-left: 4px&quot;&gt;- prodResource: Resource&lt;/p&gt;" style="verticalAlign=top;align=left;overflow=fill;fontSize=12;fontFamily=Helvetica;html=1;rounded=0;shadow=0;comic=0;labelBackgroundColor=none;strokeWidth=1" parent="WIyWlLk6GJQsqaUBKTNV-1" vertex="1"><mxGeometry x="-230" y="935" width="245" height="96" as="geometry"/></mxCell><mxCell id="fk8g1e5_puwbV-77GHfn-88" value="" style="endArrow=block;dashed=1;endFill=0;endSize=12;html=1;exitX=0.557;exitY=0.005;exitDx=0;exitDy=0;exitPerimeter=0;entryX=0.467;entryY=0.995;entryDx=0;entryDy=0;entryPerimeter=0;" parent="WIyWlLk6GJQsqaUBKTNV-1" source="fk8g1e5_puwbV-77GHfn-87" target="fk8g1e5_puwbV-77GHfn-82" edge="1"><mxGeometry width="160" relative="1" as="geometry"><mxPoint x="-260" y="1016" as="sourcePoint"/><mxPoint x="-190" y="851" as="targetPoint"/><Array as="points"><mxPoint x="-93" y="901"/><mxPoint x="-190" y="901"/></Array></mxGeometry></mxCell><mxCell id="fk8g1e5_puwbV-77GHfn-89" value="&lt;p style=&quot;margin: 0px ; margin-top: 4px ; text-align: center&quot;&gt;&lt;b&gt;ClientChangeResource&lt;/b&gt;&lt;/p&gt;&lt;hr size=&quot;1&quot;&gt;&lt;p style=&quot;margin: 0px ; margin-left: 4px&quot;&gt;- requires : arrayList&amp;lt;DevCards&amp;gt;&lt;/p&gt;&lt;p style=&quot;margin: 0px ; margin-left: 4px&quot;&gt;- prodResource: Resource&lt;/p&gt;&lt;p style=&quot;margin: 0px ; margin-left: 4px&quot;&gt;- change : Resource;&lt;/p&gt;&lt;hr size=&quot;1&quot;&gt;&lt;p style=&quot;margin: 0px ; margin-left: 4px&quot;&gt;&lt;br&gt;&lt;/p&gt;" style="verticalAlign=top;align=left;overflow=fill;fontSize=12;fontFamily=Helvetica;html=1;rounded=0;shadow=0;comic=0;labelBackgroundColor=none;strokeWidth=1" parent="WIyWlLk6GJQsqaUBKTNV-1" vertex="1"><mxGeometry x="110" y="935" width="290" height="105" as="geometry"/></mxCell><mxCell id="fk8g1e5_puwbV-77GHfn-90" value="" style="endArrow=block;dashed=1;endFill=0;endSize=12;html=1;exitX=0.529;exitY=0.012;exitDx=0;exitDy=0;exitPerimeter=0;entryX=0.465;entryY=0.995;entryDx=0;entryDy=0;entryPerimeter=0;" parent="WIyWlLk6GJQsqaUBKTNV-1" source="fk8g1e5_puwbV-77GHfn-89" target="fk8g1e5_puwbV-77GHfn-82" edge="1"><mxGeometry width="160" relative="1" as="geometry"><mxPoint x="31.529999999999745" y="1006.0050000000001" as="sourcePoint"/><mxPoint x="-190" y="841" as="targetPoint"/><Array as="points"><mxPoint x="263" y="901"/><mxPoint x="-50" y="901"/><mxPoint x="-190" y="901"/></Array></mxGeometry></mxCell><mxCell id="fk8g1e5_puwbV-77GHfn-91" value="&lt;p style=&quot;margin: 0px ; margin-top: 4px ; text-align: center&quot;&gt;&lt;b&gt;ClientDevCard&lt;/b&gt;&lt;/p&gt;&lt;hr size=&quot;1&quot;&gt;&lt;p style=&quot;margin: 0px ; margin-left: 4px&quot;&gt;- required : arrayList&amp;lt;Resource&amp;gt;&lt;/p&gt;&lt;p style=&quot;margin: 0px ; margin-left: 4px&quot;&gt;- price : arrayList&amp;lt;Resource&amp;gt;&lt;/p&gt;&lt;p style=&quot;margin: 0px ; margin-left: 4px&quot;&gt;- produces : arrayList&amp;lt;Resource&amp;gt;&lt;/p&gt;&lt;p style=&quot;margin: 0px ; margin-left: 4px&quot;&gt;- level : int&lt;/p&gt;&lt;p style=&quot;margin: 0px ; margin-left: 4px&quot;&gt;- cardID : String&amp;nbsp;&lt;/p&gt;&lt;p style=&quot;margin: 0px ; margin-left: 4px&quot;&gt;- color : Colors&lt;/p&gt;&lt;p style=&quot;margin: 0px ; margin-left: 4px&quot;&gt;- victoryPoints : int&lt;/p&gt;&lt;hr size=&quot;1&quot;&gt;&lt;p style=&quot;margin: 0px ; margin-left: 4px&quot;&gt;//solo getter&lt;/p&gt;" style="verticalAlign=top;align=left;overflow=fill;fontSize=12;fontFamily=Helvetica;html=1;rounded=0;shadow=0;comic=0;labelBackgroundColor=none;strokeWidth=1" parent="WIyWlLk6GJQsqaUBKTNV-1" vertex="1"><mxGeometry x="-320" y="417" width="290" height="164" as="geometry"/></mxCell><mxCell id="fk8g1e5_puwbV-77GHfn-92" style="edgeStyle=orthogonalEdgeStyle;rounded=0;orthogonalLoop=1;jettySize=auto;html=1;entryX=1;entryY=0.5;entryDx=0;entryDy=0;" parent="WIyWlLk6GJQsqaUBKTNV-1" source="fk8g1e5_puwbV-77GHfn-4" target="fk8g1e5_puwbV-77GHfn-91" edge="1"><mxGeometry relative="1" as="geometry"/></mxCell><mxCell id="fk8g1e5_puwbV-77GHfn-93" style="edgeStyle=orthogonalEdgeStyle;rounded=0;orthogonalLoop=1;jettySize=auto;html=1;entryX=1;entryY=0.5;entryDx=0;entryDy=0;" parent="WIyWlLk6GJQsqaUBKTNV-1" source="fk8g1e5_puwbV-77GHfn-15" target="fk8g1e5_puwbV-77GHfn-82" edge="1"><mxGeometry relative="1" as="geometry"/></mxCell></root></mxGraphModel></diagram></mxfile>